<mxfile host="app.diagrams.net" modified="2022-02-10T08:41:47.529Z" agent="5.0 (Macintosh; Intel Mac OS X 10_15_7) AppleWebKit/537.36 (KHTML, like Gecko) Chrome/97.0.4692.99 Safari/537.36" etag="VG-_K4BHRk5pYXCYYI-x" version="16.5.5" type="github">
  <diagram name="Page-1" id="c7558073-3199-34d8-9f00-42111426c3f3">
    <mxGraphModel dx="814" dy="466" grid="1" gridSize="10" guides="1" tooltips="1" connect="1" arrows="1" fold="1" page="1" pageScale="1" pageWidth="826" pageHeight="1169" background="none" math="0" shadow="0">
      <root>
        <mxCell id="0" />
        <mxCell id="1" parent="0" />
        <mxCell id="mWcHBqr2pKfCxrbAeMxW-103" value="VM&amp;nbsp;&amp;nbsp;" style="rounded=1;whiteSpace=wrap;html=1;fillColor=#E6E6E6;arcSize=5;align=right;verticalAlign=bottom;" vertex="1" parent="1">
          <mxGeometry x="180" y="41" width="350" height="290" as="geometry" />
        </mxCell>
        <mxCell id="mWcHBqr2pKfCxrbAeMxW-100" value="&lt;div style=&quot;text-align: justify&quot;&gt;&lt;span&gt;sensu-agent&amp;nbsp;&lt;/span&gt;&lt;/div&gt;&lt;div style=&quot;text-align: justify&quot;&gt;&lt;span&gt;package&lt;/span&gt;&lt;/div&gt;" style="rounded=1;whiteSpace=wrap;html=1;align=right;verticalAlign=bottom;fillColor=#D4E1F5;" vertex="1" parent="1">
          <mxGeometry x="220" y="191" width="270" height="120" as="geometry" />
        </mxCell>
        <mxCell id="mWcHBqr2pKfCxrbAeMxW-97" value="statsd protocol listener (port 8125)" style="rounded=1;whiteSpace=wrap;html=1;fillColor=#D5E8D4;" vertex="1" parent="1">
          <mxGeometry x="295" y="227" width="120" height="60" as="geometry" />
        </mxCell>
        <mxCell id="mWcHBqr2pKfCxrbAeMxW-102" value="" style="edgeStyle=orthogonalEdgeStyle;rounded=0;orthogonalLoop=1;jettySize=auto;html=1;strokeWidth=3;strokeColor=#FF0000;" edge="1" parent="1" source="mWcHBqr2pKfCxrbAeMxW-101" target="mWcHBqr2pKfCxrbAeMxW-97">
          <mxGeometry relative="1" as="geometry" />
        </mxCell>
        <mxCell id="mWcHBqr2pKfCxrbAeMxW-101" value="application&lt;br&gt;or service" style="rounded=1;whiteSpace=wrap;html=1;fillColor=#97D077;" vertex="1" parent="1">
          <mxGeometry x="295" y="70" width="120" height="60" as="geometry" />
        </mxCell>
        <mxCell id="mWcHBqr2pKfCxrbAeMxW-104" value="&lt;div style=&quot;text-align: justify&quot;&gt;sensu-backend&amp;nbsp;&amp;nbsp;&lt;/div&gt;" style="rounded=1;whiteSpace=wrap;html=1;align=right;verticalAlign=bottom;fillColor=#D4E1F5;" vertex="1" parent="1">
          <mxGeometry x="187.5" y="414" width="335" height="120" as="geometry" />
        </mxCell>
        <mxCell id="mWcHBqr2pKfCxrbAeMxW-105" value="&lt;p class=&quot;p1&quot; style=&quot;margin: 0px ; font-stretch: normal ; line-height: normal ; font-family: &amp;#34;menlo&amp;#34;&quot;&gt;&lt;b&gt;&lt;span class=&quot;s1&quot;&gt;influxdb_st&lt;/span&gt;&lt;span class=&quot;s2&quot;&gt;ats&lt;/span&gt;&lt;/b&gt;&lt;/p&gt;&lt;p class=&quot;p1&quot; style=&quot;margin: 0px ; font-stretch: normal ; line-height: normal&quot;&gt;&lt;span class=&quot;s2&quot;&gt;&lt;i&gt;&lt;font style=&quot;font-size: 12px&quot;&gt;(handler)&lt;/font&gt;&lt;/i&gt;&lt;/span&gt;&lt;/p&gt;" style="rounded=1;whiteSpace=wrap;html=1;fillColor=#D5E8D4;" vertex="1" parent="1">
          <mxGeometry x="295" y="444" width="120" height="60" as="geometry" />
        </mxCell>
        <mxCell id="mWcHBqr2pKfCxrbAeMxW-106" value="" style="edgeStyle=orthogonalEdgeStyle;rounded=0;orthogonalLoop=1;jettySize=auto;html=1;exitX=0.5;exitY=1;exitDx=0;exitDy=0;strokeWidth=3;strokeColor=#FF0000;" edge="1" parent="1" source="mWcHBqr2pKfCxrbAeMxW-97" target="mWcHBqr2pKfCxrbAeMxW-105">
          <mxGeometry relative="1" as="geometry">
            <mxPoint x="230" y="290" as="sourcePoint" />
            <mxPoint x="240" y="230" as="targetPoint" />
          </mxGeometry>
        </mxCell>
        <mxCell id="mWcHBqr2pKfCxrbAeMxW-107" value="&lt;div style=&quot;text-align: justify&quot;&gt;shared InfluxDB cluster&amp;nbsp;&lt;/div&gt;" style="rounded=1;whiteSpace=wrap;html=1;align=right;verticalAlign=bottom;fillColor=#FFFFCC;" vertex="1" parent="1">
          <mxGeometry x="187.5" y="629" width="335" height="120" as="geometry" />
        </mxCell>
        <mxCell id="mWcHBqr2pKfCxrbAeMxW-108" value="&lt;p class=&quot;p1&quot; style=&quot;margin: 0px ; font-stretch: normal ; line-height: normal ; font-family: &amp;#34;menlo&amp;#34;&quot;&gt;&lt;b&gt;&lt;font style=&quot;font-size: 12px&quot;&gt;app_stats&lt;/font&gt;&lt;/b&gt;&lt;/p&gt;&lt;p class=&quot;p1&quot; style=&quot;margin: 0px ; font-stretch: normal ; line-height: normal&quot;&gt;&lt;font style=&quot;font-size: 12px&quot;&gt;&lt;i&gt;(measurement)&lt;/i&gt;&lt;/font&gt;&lt;/p&gt;" style="rounded=1;whiteSpace=wrap;html=1;fillColor=#FF9933;" vertex="1" parent="1">
          <mxGeometry x="295" y="659" width="120" height="60" as="geometry" />
        </mxCell>
        <mxCell id="mWcHBqr2pKfCxrbAeMxW-110" value="&lt;i&gt;statsd&lt;br&gt;protocol&lt;/i&gt;" style="text;html=1;strokeColor=none;fillColor=none;align=center;verticalAlign=middle;whiteSpace=wrap;rounded=0;labelBackgroundColor=none;fontFamily=Helvetica;fontSize=12;fontColor=#000000;" vertex="1" parent="1">
          <mxGeometry x="200" y="130" width="60" height="30" as="geometry" />
        </mxCell>
        <mxCell id="mWcHBqr2pKfCxrbAeMxW-111" value="&lt;i&gt;Sensu&lt;br&gt;backend/agent&lt;br&gt;protocol&lt;br&gt;&lt;/i&gt;" style="text;html=1;strokeColor=none;fillColor=none;align=center;verticalAlign=middle;whiteSpace=wrap;rounded=0;labelBackgroundColor=none;fontFamily=Helvetica;fontSize=12;fontColor=#000000;" vertex="1" parent="1">
          <mxGeometry x="200" y="366" width="60" height="30" as="geometry" />
        </mxCell>
        <mxCell id="mWcHBqr2pKfCxrbAeMxW-112" value="" style="edgeStyle=orthogonalEdgeStyle;rounded=0;orthogonalLoop=1;jettySize=auto;html=1;fontFamily=Helvetica;fontSize=12;fontColor=#000000;strokeColor=#FF0000;strokeWidth=3;" edge="1" parent="1" source="mWcHBqr2pKfCxrbAeMxW-105" target="mWcHBqr2pKfCxrbAeMxW-108">
          <mxGeometry relative="1" as="geometry" />
        </mxCell>
        <mxCell id="mWcHBqr2pKfCxrbAeMxW-113" value="&lt;i&gt;InfluxDB&lt;br&gt;protocol&lt;br&gt;&lt;/i&gt;" style="text;html=1;strokeColor=none;fillColor=none;align=center;verticalAlign=middle;whiteSpace=wrap;rounded=0;labelBackgroundColor=none;fontFamily=Helvetica;fontSize=12;fontColor=#000000;" vertex="1" parent="1">
          <mxGeometry x="189" y="585" width="60" height="30" as="geometry" />
        </mxCell>
        <mxCell id="mWcHBqr2pKfCxrbAeMxW-114" value="" style="endArrow=none;dashed=1;html=1;dashPattern=1 3;strokeWidth=2;rounded=0;fontFamily=Helvetica;fontSize=12;fontColor=#000000;exitX=1;exitY=0.5;exitDx=0;exitDy=0;fillColor=#f8cecc;strokeColor=#b85450;" edge="1" parent="1" source="mWcHBqr2pKfCxrbAeMxW-110">
          <mxGeometry width="50" height="50" relative="1" as="geometry">
            <mxPoint x="370" y="360" as="sourcePoint" />
            <mxPoint x="350" y="160" as="targetPoint" />
          </mxGeometry>
        </mxCell>
        <mxCell id="mWcHBqr2pKfCxrbAeMxW-118" value="" style="endArrow=none;dashed=1;html=1;dashPattern=1 3;strokeWidth=2;rounded=0;fontFamily=Helvetica;fontSize=12;fontColor=#000000;fillColor=#f8cecc;strokeColor=#b85450;" edge="1" parent="1" source="mWcHBqr2pKfCxrbAeMxW-111">
          <mxGeometry width="50" height="50" relative="1" as="geometry">
            <mxPoint x="280" y="380" as="sourcePoint" />
            <mxPoint x="360" y="350" as="targetPoint" />
          </mxGeometry>
        </mxCell>
        <mxCell id="mWcHBqr2pKfCxrbAeMxW-119" value="" style="endArrow=none;dashed=1;html=1;dashPattern=1 3;strokeWidth=2;rounded=0;fontFamily=Helvetica;fontSize=12;fontColor=#000000;fillColor=#f8cecc;strokeColor=#b85450;exitX=1;exitY=0.25;exitDx=0;exitDy=0;" edge="1" parent="1" source="mWcHBqr2pKfCxrbAeMxW-113">
          <mxGeometry width="50" height="50" relative="1" as="geometry">
            <mxPoint x="280" y="585.003076923077" as="sourcePoint" />
            <mxPoint x="350" y="570" as="targetPoint" />
          </mxGeometry>
        </mxCell>
      </root>
    </mxGraphModel>
  </diagram>
</mxfile>
